<mxfile host="app.diagrams.net" modified="2021-11-14T05:15:26.571Z" agent="5.0 (Windows NT 10.0; Win64; x64) AppleWebKit/537.36 (KHTML, like Gecko) Chrome/95.0.4638.69 Safari/537.36" etag="TmbbrtOXPu1_R-w8NYT-" version="15.7.3" type="github">
  <diagram id="5w2Dj1mCmY0rpLRGhdr2" name="Page-1">
    <mxGraphModel dx="1542" dy="860" grid="1" gridSize="10" guides="1" tooltips="1" connect="1" arrows="1" fold="1" page="1" pageScale="1" pageWidth="827" pageHeight="1169" math="0" shadow="0">
      <root>
        <mxCell id="0" />
        <mxCell id="1" parent="0" />
        <mxCell id="YnXqTPXDmDKX_PHMFjBG-22" style="edgeStyle=orthogonalEdgeStyle;rounded=0;orthogonalLoop=1;jettySize=auto;html=1;entryX=0;entryY=0.5;entryDx=0;entryDy=0;" edge="1" parent="1" source="YnXqTPXDmDKX_PHMFjBG-1" target="YnXqTPXDmDKX_PHMFjBG-2">
          <mxGeometry relative="1" as="geometry">
            <Array as="points">
              <mxPoint x="180" y="400" />
              <mxPoint x="180" y="320" />
            </Array>
          </mxGeometry>
        </mxCell>
        <mxCell id="YnXqTPXDmDKX_PHMFjBG-1" value="Customer" style="shape=umlActor;verticalLabelPosition=bottom;verticalAlign=top;html=1;outlineConnect=0;" vertex="1" parent="1">
          <mxGeometry x="40" y="370" width="30" height="60" as="geometry" />
        </mxCell>
        <mxCell id="YnXqTPXDmDKX_PHMFjBG-5" value="" style="swimlane;startSize=0;" vertex="1" parent="1">
          <mxGeometry x="140" y="70" width="530" height="860" as="geometry" />
        </mxCell>
        <mxCell id="YnXqTPXDmDKX_PHMFjBG-70" style="edgeStyle=orthogonalEdgeStyle;rounded=0;orthogonalLoop=1;jettySize=auto;html=1;entryX=0.56;entryY=0.075;entryDx=0;entryDy=0;entryPerimeter=0;" edge="1" parent="YnXqTPXDmDKX_PHMFjBG-5" source="YnXqTPXDmDKX_PHMFjBG-8" target="YnXqTPXDmDKX_PHMFjBG-69">
          <mxGeometry relative="1" as="geometry">
            <Array as="points">
              <mxPoint x="154" y="670" />
              <mxPoint x="272" y="670" />
            </Array>
          </mxGeometry>
        </mxCell>
        <mxCell id="YnXqTPXDmDKX_PHMFjBG-11" value="&lt;b&gt;&lt;font style=&quot;font-size: 14px&quot;&gt;SIstem Booking Penginapan&lt;/font&gt;&lt;/b&gt;" style="text;html=1;strokeColor=none;fillColor=none;align=center;verticalAlign=middle;whiteSpace=wrap;rounded=0;" vertex="1" parent="YnXqTPXDmDKX_PHMFjBG-5">
          <mxGeometry x="150" y="10" width="280" height="30" as="geometry" />
        </mxCell>
        <mxCell id="YnXqTPXDmDKX_PHMFjBG-2" value="Pilih ketersediaan penginapan" style="ellipse;whiteSpace=wrap;html=1;" vertex="1" parent="YnXqTPXDmDKX_PHMFjBG-5">
          <mxGeometry x="94" y="220" width="120" height="60" as="geometry" />
        </mxCell>
        <mxCell id="YnXqTPXDmDKX_PHMFjBG-3" value="Melihat detail penginapan" style="ellipse;whiteSpace=wrap;html=1;" vertex="1" parent="YnXqTPXDmDKX_PHMFjBG-5">
          <mxGeometry x="94" y="330" width="120" height="60" as="geometry" />
        </mxCell>
        <mxCell id="YnXqTPXDmDKX_PHMFjBG-18" value="" style="edgeStyle=orthogonalEdgeStyle;rounded=0;orthogonalLoop=1;jettySize=auto;html=1;" edge="1" parent="YnXqTPXDmDKX_PHMFjBG-5" source="YnXqTPXDmDKX_PHMFjBG-2" target="YnXqTPXDmDKX_PHMFjBG-3">
          <mxGeometry relative="1" as="geometry" />
        </mxCell>
        <mxCell id="YnXqTPXDmDKX_PHMFjBG-20" style="edgeStyle=orthogonalEdgeStyle;rounded=0;orthogonalLoop=1;jettySize=auto;html=1;exitX=0.5;exitY=1;exitDx=0;exitDy=0;startArrow=none;" edge="1" parent="YnXqTPXDmDKX_PHMFjBG-5" source="YnXqTPXDmDKX_PHMFjBG-8">
          <mxGeometry relative="1" as="geometry">
            <mxPoint x="154" y="490" as="targetPoint" />
          </mxGeometry>
        </mxCell>
        <mxCell id="YnXqTPXDmDKX_PHMFjBG-23" value="Login" style="ellipse;whiteSpace=wrap;html=1;" vertex="1" parent="YnXqTPXDmDKX_PHMFjBG-5">
          <mxGeometry x="190" y="70" width="120" height="40" as="geometry" />
        </mxCell>
        <mxCell id="YnXqTPXDmDKX_PHMFjBG-36" value="Password" style="ellipse;whiteSpace=wrap;html=1;" vertex="1" parent="YnXqTPXDmDKX_PHMFjBG-5">
          <mxGeometry x="330" y="130" width="90" height="40" as="geometry" />
        </mxCell>
        <mxCell id="YnXqTPXDmDKX_PHMFjBG-40" value="include" style="html=1;verticalAlign=bottom;endArrow=open;dashed=1;endSize=8;rounded=0;entryX=0;entryY=0;entryDx=0;entryDy=0;exitX=0.699;exitY=0.957;exitDx=0;exitDy=0;exitPerimeter=0;" edge="1" parent="YnXqTPXDmDKX_PHMFjBG-5" source="YnXqTPXDmDKX_PHMFjBG-23" target="YnXqTPXDmDKX_PHMFjBG-36">
          <mxGeometry relative="1" as="geometry">
            <mxPoint x="255" y="420" as="sourcePoint" />
            <mxPoint x="175" y="420" as="targetPoint" />
          </mxGeometry>
        </mxCell>
        <mxCell id="YnXqTPXDmDKX_PHMFjBG-35" value="Username" style="ellipse;whiteSpace=wrap;html=1;" vertex="1" parent="YnXqTPXDmDKX_PHMFjBG-5">
          <mxGeometry x="94" y="140" width="90" height="40" as="geometry" />
        </mxCell>
        <mxCell id="YnXqTPXDmDKX_PHMFjBG-44" value="include" style="html=1;verticalAlign=bottom;endArrow=open;dashed=1;endSize=8;rounded=0;exitX=0;exitY=1;exitDx=0;exitDy=0;entryX=0.522;entryY=-0.107;entryDx=0;entryDy=0;entryPerimeter=0;" edge="1" parent="YnXqTPXDmDKX_PHMFjBG-5" source="YnXqTPXDmDKX_PHMFjBG-23" target="YnXqTPXDmDKX_PHMFjBG-35">
          <mxGeometry relative="1" as="geometry">
            <mxPoint x="220" y="240" as="sourcePoint" />
            <mxPoint x="140" y="240" as="targetPoint" />
          </mxGeometry>
        </mxCell>
        <mxCell id="YnXqTPXDmDKX_PHMFjBG-67" value="Memasukkan jumlah malam&lt;br&gt;hari dan tanggal" style="ellipse;whiteSpace=wrap;html=1;" vertex="1" parent="YnXqTPXDmDKX_PHMFjBG-5">
          <mxGeometry x="10" y="550" width="130" height="70" as="geometry" />
        </mxCell>
        <mxCell id="YnXqTPXDmDKX_PHMFjBG-68" value="include" style="html=1;verticalAlign=bottom;endArrow=open;dashed=1;endSize=8;rounded=0;entryX=0.5;entryY=0;entryDx=0;entryDy=0;" edge="1" parent="YnXqTPXDmDKX_PHMFjBG-5" source="YnXqTPXDmDKX_PHMFjBG-8" target="YnXqTPXDmDKX_PHMFjBG-67">
          <mxGeometry relative="1" as="geometry">
            <mxPoint x="310" y="560" as="sourcePoint" />
            <mxPoint x="230" y="560" as="targetPoint" />
          </mxGeometry>
        </mxCell>
        <mxCell id="YnXqTPXDmDKX_PHMFjBG-69" value="Melakukan Pembayaran" style="ellipse;whiteSpace=wrap;html=1;" vertex="1" parent="YnXqTPXDmDKX_PHMFjBG-5">
          <mxGeometry x="205" y="690" width="120" height="45" as="geometry" />
        </mxCell>
        <mxCell id="YnXqTPXDmDKX_PHMFjBG-75" value="Nama Customer" style="ellipse;whiteSpace=wrap;html=1;" vertex="1" parent="YnXqTPXDmDKX_PHMFjBG-5">
          <mxGeometry x="30" y="805" width="120" height="45" as="geometry" />
        </mxCell>
        <mxCell id="YnXqTPXDmDKX_PHMFjBG-76" value="Nama Bank" style="ellipse;whiteSpace=wrap;html=1;" vertex="1" parent="YnXqTPXDmDKX_PHMFjBG-5">
          <mxGeometry x="198.5" y="805" width="120" height="45" as="geometry" />
        </mxCell>
        <mxCell id="YnXqTPXDmDKX_PHMFjBG-77" value="Upload bukti pembayaran" style="ellipse;whiteSpace=wrap;html=1;" vertex="1" parent="YnXqTPXDmDKX_PHMFjBG-5">
          <mxGeometry x="370" y="805" width="120" height="45" as="geometry" />
        </mxCell>
        <mxCell id="YnXqTPXDmDKX_PHMFjBG-78" value="include" style="html=1;verticalAlign=bottom;endArrow=open;dashed=1;endSize=8;rounded=0;exitX=0;exitY=1;exitDx=0;exitDy=0;entryX=0.5;entryY=0;entryDx=0;entryDy=0;" edge="1" parent="YnXqTPXDmDKX_PHMFjBG-5" source="YnXqTPXDmDKX_PHMFjBG-69" target="YnXqTPXDmDKX_PHMFjBG-75">
          <mxGeometry relative="1" as="geometry">
            <mxPoint x="290" y="750" as="sourcePoint" />
            <mxPoint x="210" y="750" as="targetPoint" />
          </mxGeometry>
        </mxCell>
        <mxCell id="YnXqTPXDmDKX_PHMFjBG-79" value="include" style="html=1;verticalAlign=bottom;endArrow=open;dashed=1;endSize=8;rounded=0;exitX=1;exitY=1;exitDx=0;exitDy=0;entryX=0.5;entryY=0;entryDx=0;entryDy=0;" edge="1" parent="YnXqTPXDmDKX_PHMFjBG-5" source="YnXqTPXDmDKX_PHMFjBG-69" target="YnXqTPXDmDKX_PHMFjBG-77">
          <mxGeometry relative="1" as="geometry">
            <mxPoint x="290" y="750" as="sourcePoint" />
            <mxPoint x="210" y="750" as="targetPoint" />
          </mxGeometry>
        </mxCell>
        <mxCell id="YnXqTPXDmDKX_PHMFjBG-80" value="include" style="html=1;verticalAlign=bottom;endArrow=open;dashed=1;endSize=8;rounded=0;exitX=0.5;exitY=1;exitDx=0;exitDy=0;entryX=0.5;entryY=0;entryDx=0;entryDy=0;" edge="1" parent="YnXqTPXDmDKX_PHMFjBG-5" source="YnXqTPXDmDKX_PHMFjBG-69" target="YnXqTPXDmDKX_PHMFjBG-76">
          <mxGeometry relative="1" as="geometry">
            <mxPoint x="290" y="750" as="sourcePoint" />
            <mxPoint x="240" y="770" as="targetPoint" />
          </mxGeometry>
        </mxCell>
        <mxCell id="YnXqTPXDmDKX_PHMFjBG-91" value="" style="edgeStyle=orthogonalEdgeStyle;rounded=0;orthogonalLoop=1;jettySize=auto;html=1;" edge="1" parent="YnXqTPXDmDKX_PHMFjBG-5" source="YnXqTPXDmDKX_PHMFjBG-85" target="YnXqTPXDmDKX_PHMFjBG-87">
          <mxGeometry relative="1" as="geometry" />
        </mxCell>
        <mxCell id="YnXqTPXDmDKX_PHMFjBG-85" value="Status Pemesanan" style="ellipse;whiteSpace=wrap;html=1;" vertex="1" parent="YnXqTPXDmDKX_PHMFjBG-5">
          <mxGeometry x="250" y="450" width="120" height="45" as="geometry" />
        </mxCell>
        <mxCell id="YnXqTPXDmDKX_PHMFjBG-96" style="edgeStyle=orthogonalEdgeStyle;rounded=0;orthogonalLoop=1;jettySize=auto;html=1;entryX=1;entryY=0.5;entryDx=0;entryDy=0;fontSize=14;" edge="1" parent="YnXqTPXDmDKX_PHMFjBG-5" source="YnXqTPXDmDKX_PHMFjBG-86" target="YnXqTPXDmDKX_PHMFjBG-2">
          <mxGeometry relative="1" as="geometry" />
        </mxCell>
        <mxCell id="YnXqTPXDmDKX_PHMFjBG-86" value="Mengatur ketersediaan penginapan" style="ellipse;whiteSpace=wrap;html=1;" vertex="1" parent="YnXqTPXDmDKX_PHMFjBG-5">
          <mxGeometry x="310" y="220" width="120" height="60" as="geometry" />
        </mxCell>
        <mxCell id="YnXqTPXDmDKX_PHMFjBG-87" value="Membuat laporan" style="ellipse;whiteSpace=wrap;html=1;" vertex="1" parent="YnXqTPXDmDKX_PHMFjBG-5">
          <mxGeometry x="250" y="320" width="120" height="60" as="geometry" />
        </mxCell>
        <mxCell id="YnXqTPXDmDKX_PHMFjBG-95" style="edgeStyle=orthogonalEdgeStyle;rounded=0;orthogonalLoop=1;jettySize=auto;html=1;entryX=1;entryY=1;entryDx=0;entryDy=0;" edge="1" parent="YnXqTPXDmDKX_PHMFjBG-5" source="YnXqTPXDmDKX_PHMFjBG-93" target="YnXqTPXDmDKX_PHMFjBG-87">
          <mxGeometry relative="1" as="geometry">
            <Array as="points">
              <mxPoint x="380" y="418" />
              <mxPoint x="353" y="418" />
            </Array>
          </mxGeometry>
        </mxCell>
        <mxCell id="YnXqTPXDmDKX_PHMFjBG-93" value="Memeriksa status transaksi" style="ellipse;whiteSpace=wrap;html=1;" vertex="1" parent="YnXqTPXDmDKX_PHMFjBG-5">
          <mxGeometry x="400" y="395" width="120" height="45" as="geometry" />
        </mxCell>
        <mxCell id="YnXqTPXDmDKX_PHMFjBG-8" value="Melakukan pemesanan" style="ellipse;whiteSpace=wrap;html=1;" vertex="1" parent="YnXqTPXDmDKX_PHMFjBG-5">
          <mxGeometry x="94" y="440" width="120" height="45" as="geometry" />
        </mxCell>
        <mxCell id="YnXqTPXDmDKX_PHMFjBG-99" value="" style="edgeStyle=orthogonalEdgeStyle;rounded=0;orthogonalLoop=1;jettySize=auto;html=1;exitX=0.5;exitY=1;exitDx=0;exitDy=0;endArrow=none;" edge="1" parent="YnXqTPXDmDKX_PHMFjBG-5" source="YnXqTPXDmDKX_PHMFjBG-3" target="YnXqTPXDmDKX_PHMFjBG-8">
          <mxGeometry relative="1" as="geometry">
            <mxPoint x="294" y="460" as="sourcePoint" />
            <mxPoint x="294" y="560" as="targetPoint" />
          </mxGeometry>
        </mxCell>
        <mxCell id="YnXqTPXDmDKX_PHMFjBG-100" value="Memasukkan&amp;nbsp;&lt;br&gt;hari dan tanggal" style="ellipse;whiteSpace=wrap;html=1;" vertex="1" parent="YnXqTPXDmDKX_PHMFjBG-5">
          <mxGeometry x="193.5" y="550" width="130" height="70" as="geometry" />
        </mxCell>
        <mxCell id="YnXqTPXDmDKX_PHMFjBG-101" value="include" style="html=1;verticalAlign=bottom;endArrow=open;dashed=1;endSize=8;rounded=0;entryX=0.5;entryY=0;entryDx=0;entryDy=0;exitX=1;exitY=1;exitDx=0;exitDy=0;" edge="1" parent="YnXqTPXDmDKX_PHMFjBG-5" source="YnXqTPXDmDKX_PHMFjBG-8" target="YnXqTPXDmDKX_PHMFjBG-100">
          <mxGeometry relative="1" as="geometry">
            <mxPoint x="149.4478624978201" y="494.32820625326997" as="sourcePoint" />
            <mxPoint x="85.00000000000011" y="590" as="targetPoint" />
          </mxGeometry>
        </mxCell>
        <mxCell id="YnXqTPXDmDKX_PHMFjBG-45" style="edgeStyle=orthogonalEdgeStyle;rounded=0;orthogonalLoop=1;jettySize=auto;html=1;entryX=1;entryY=0.5;entryDx=0;entryDy=0;" edge="1" parent="1" source="YnXqTPXDmDKX_PHMFjBG-12">
          <mxGeometry relative="1" as="geometry">
            <mxPoint x="450" y="149.9999999999999" as="targetPoint" />
          </mxGeometry>
        </mxCell>
        <mxCell id="YnXqTPXDmDKX_PHMFjBG-84" style="edgeStyle=orthogonalEdgeStyle;rounded=0;orthogonalLoop=1;jettySize=auto;html=1;" edge="1" parent="1" source="YnXqTPXDmDKX_PHMFjBG-12" target="YnXqTPXDmDKX_PHMFjBG-86">
          <mxGeometry relative="1" as="geometry">
            <Array as="points">
              <mxPoint x="755" y="320" />
            </Array>
          </mxGeometry>
        </mxCell>
        <mxCell id="YnXqTPXDmDKX_PHMFjBG-92" style="edgeStyle=orthogonalEdgeStyle;rounded=0;orthogonalLoop=1;jettySize=auto;html=1;entryX=1;entryY=0.5;entryDx=0;entryDy=0;" edge="1" parent="1" source="YnXqTPXDmDKX_PHMFjBG-12" target="YnXqTPXDmDKX_PHMFjBG-87">
          <mxGeometry relative="1" as="geometry">
            <Array as="points">
              <mxPoint x="755" y="420" />
            </Array>
          </mxGeometry>
        </mxCell>
        <mxCell id="YnXqTPXDmDKX_PHMFjBG-12" value="Sistem Administrator" style="shape=umlActor;verticalLabelPosition=bottom;verticalAlign=top;html=1;outlineConnect=0;" vertex="1" parent="1">
          <mxGeometry x="740" y="120" width="30" height="60" as="geometry" />
        </mxCell>
      </root>
    </mxGraphModel>
  </diagram>
</mxfile>
